<svg width="349" height="328" viewBox="0 0 349 328" fill="none" xmlns="http://www.w3.org/2000/svg">
<rect width="349" height="328" rx="100" fill="#171616"/>
<path d="M310.715 131.452L264.215 150.452L299.715 178.452L254.715 196.452L289.215 225.452L148.715 280.452L39.2148 196.452L84.2148 177.452L49.2148 149.452L94.2148 131.452L59.2148 104.452L199.215 47.4521L310.715 131.452Z" fill="#FFFDFD"/>
<path d="M169.292 188.88L60.2079 104.588L199.141 48.0222L309.712 131.323L169.292 188.88Z" stroke="black"/>
<path d="M94.2148 131.452L49.2148 149.452L156.915 235.452L299.715 178.452L264.215 150.452" stroke="black"/>
<path d="M84.2148 177.452L39.2148 196.452L148.715 280.452L289.215 225.452L254.715 196.452" stroke="black"/>
</svg>
